<?xml version="1.0" encoding="utf-8"?>
<!-- Generator: Adobe Illustrator 21.0.0, SVG Export Plug-In . SVG Version: 6.00 Build 0)  -->
<svg version="1.1" id="图层_1" xmlns="http://www.w3.org/2000/svg" xmlns:xlink="http://www.w3.org/1999/xlink" x="0px" y="0px"
	 viewBox="0 0 44 15" style="enable-background:new 0 0 44 15;" xml:space="preserve">
<style type="text/css">
	.st0{fill:#FF6A56;}
</style>
<title>couponsBg@2x</title>
<desc>Created with Sketch.</desc>
<g id="couponsBg">
	<path id="Combined-Shape-Copy-7" class="st0" d="M44,13v2H0v-2c0.6,0,1-0.4,1-1s-0.4-1-1-1v-1c0.6,0,1-0.4,1-1S0.6,8,0,8V7
		c0.6,0,1-0.4,1-1S0.6,5,0,5V4c0.6,0,1-0.4,1-1S0.6,2,0,2V0h44v2c-0.6,0-1,0.4-1,1s0.4,1,1,1v1c-0.6,0-1,0.4-1,1s0.4,1,1,1v1
		c-0.6,0-1,0.4-1,1s0.4,1,1,1v1c-0.6,0-1,0.4-1,1S43.4,13,44,13z"/>
</g>
</svg>
