<?xml version="1.0" encoding="utf-8"?>
<!-- Generator: Adobe Illustrator 21.0.0, SVG Export Plug-In . SVG Version: 6.00 Build 0)  -->
<svg version="1.1" id="图层_1" xmlns="http://www.w3.org/2000/svg" xmlns:xlink="http://www.w3.org/1999/xlink" x="0px" y="0px"
	 viewBox="0 0 150 150" style="enable-background:new 0 0 150 150;" xml:space="preserve">
<style type="text/css">
	.st0{opacity:0.1979;fill:none;stroke:#DDDDDD;stroke-width:2;enable-background:new    ;}
	.st1{fill:#ECECEC;}
	.st2{fill:#DDDDDD;}
	.st3{fill:#F0F0F0;}
	.st4{fill:none;stroke:#DDDDDD;stroke-width:3;}
	.st5{fill:none;stroke:#DDDDDD;stroke-width:3;stroke-linecap:round;stroke-linejoin:round;}
	.st6{fill:none;stroke:#DDDDDD;stroke-width:3;stroke-linecap:square;}
</style>
<title>defaultPic/noActivities@2x</title>
<desc>Created with Sketch.</desc>
<g id="defaultPic_x2F_noActivities">
	<path id="Stroke-31" class="st0" d="M141.4,51.8c0-2.4-2-4.3-4.4-4.3c-2.5,0-4.4,2-4.4,4.3s2,4.3,4.4,4.3
		C139.4,56.2,141.4,54.2,141.4,51.8z"/>
	<path id="Fill-33" class="st1" d="M26,52c0,1.7-1.3,3-3,3s-3-1.3-3-3s1.3-3,3-3S26,50.3,26,52"/>
	<path id="Fill-35" class="st2" d="M79,35.5c0,1.4-1.1,2.5-2.5,2.5S74,36.9,74,35.5s1.1-2.5,2.5-2.5S79,34.1,79,35.5"/>
	<path id="Fill-39" class="st1" d="M141,96.5c0,1.4-1.1,2.5-2.5,2.5s-2.5-1.1-2.5-2.5s1.1-2.5,2.5-2.5S141,95.1,141,96.5"/>
	<polygon id="Fill-45" class="st1" points="50.3,27.9 51.8,30.6 54.6,32.2 51.8,33.7 50.3,36.5 48.7,33.7 45.9,32.2 48.7,30.6 	"/>
	<path id="Fill-69" class="st2" d="M9.1,92.1c-1.2,1.2-3.1,1.2-4.2,0c-1.2-1.2-1.2-3.1,0-4.2c1.2-1.2,3.1-1.2,4.2,0
		C10.3,89.1,10.3,91,9.1,92.1"/>
	<path id="Fill-1" class="st3" d="M116.2,105.9c0,0-5.1-14.9-20.1-20.9c15-1.6,36.8,25.9,41.7,31.5"/>
	<path id="Stroke-3_1_" class="st4" d="M134,114c-3.1-3.9-8.4-10.3-11.2-13.4c-5.6-6.2-10.9-10.9-15.8-13.8
		c-3.6-2.2-6.9-3.3-9.9-3.3c-7.7,0-13.4,4.6-21.1,14.7c-0.4,0.6-3,4.3-4.3,6"/>
	<path id="Stroke-5" class="st5" d="M79.1,104.4c2.1-3,3.3-5.1,5.3-7.1"/>
	<path id="Stroke-7" class="st5" d="M89,93.7l2.6-2.2"/>
	<path id="Stroke-9" class="st4" d="M28.5,68.5c0,2.8,2.2,5,5,5c2.8,0,5-2.2,5-5s-2.2-5-5-5C30.7,63.5,28.5,65.7,28.5,68.5z"/>
	<path id="Stroke-11" class="st5" d="M33.5,58.8v2.9"/>
	<path id="Stroke-13" class="st5" d="M39.9,61.6l-2.1,2.1"/>
	<path id="Stroke-15" class="st5" d="M42.7,68.5h-2.9"/>
	<path id="Stroke-17" class="st5" d="M39.9,75L37.8,73"/>
	<path id="Stroke-19" class="st5" d="M33.5,77.8v-2.9"/>
	<path id="Stroke-21" class="st5" d="M26.5,75l2.1-2.1"/>
	<path id="Stroke-23" class="st5" d="M23.7,68.5h2.9"/>
	<path id="Stroke-25" class="st5" d="M26.5,61.6l2.1,2.1"/>
	<path id="Stroke-31_1_" class="st4" d="M82.9,58.3c8.2,2.1,13.9,1.3,13.9-1.1c-0.1-5.7-3.2-10.5-9-12.1C82,43.5,77.6,44.7,74.9,48
		c-1.3,1.6-1.6,2.4-1.8,3.7c0,0,0,0,0,0c0,0.1,0,0.3,0.1,0.5c0,0.1,0.1,0.2,0.1,0.2c0,0,0.1,0.1,0.1,0.1c0.2,0.2,0.5,0.4,0.8,0.7
		c0.8,0.7,1.8,1.4,2.8,2.1C79,56.7,81,57.8,82.9,58.3C82.9,58.3,82.9,58.3,82.9,58.3z"/>
	<path id="Fill-33_1_" class="st2" d="M69,53.5c0,0.8-0.7,1.5-1.5,1.5c-0.8,0-1.5-0.7-1.5-1.5s0.7-1.5,1.5-1.5
		C68.3,52,69,52.7,69,53.5"/>
	<path id="Fill-35_1_" class="st2" d="M78.1,60.3c0,0.8-0.7,1.5-1.5,1.5s-1.5-0.7-1.5-1.5c0-0.8,0.7-1.5,1.5-1.5
		S78.1,59.5,78.1,60.3"/>
	<path id="Fill-37" class="st2" d="M90.3,64.3c0,0.8-0.7,1.5-1.5,1.5c-0.8,0-1.5-0.7-1.5-1.5c0-0.8,0.7-1.5,1.5-1.5
		C89.6,62.8,90.3,63.4,90.3,64.3"/>
	<path id="Fill-39_1_" class="st2" d="M101,61.9c0,0.8-0.7,1.5-1.5,1.5c-0.8,0-1.5-0.7-1.5-1.5s0.7-1.5,1.5-1.5
		C100.4,60.4,101,61.1,101,61.9"/>
	<path id="Stroke-41" class="st4" d="M71.9,70.7c0,0-1.3,3.4-7.1,4.3"/>
	<path id="Stroke-43" class="st4" d="M78.8,73.6c0,0-1,4.1-7.2,6.1"/>
	<path id="Stroke-45" class="st4" d="M85.1,75c0,0-1.2,6.1-7.9,7.7"/>
	<path id="Stroke-47" class="st4" d="M82.4,23.6c0,0,16.3-4.1,23.5,10.1"/>
	<path id="Stroke-49" class="st4" d="M86.3,29.7c0,0,8.4-2.6,12.3,4.8"/>
	<path id="Stroke-51" class="st4" d="M88.3,34.7c0,0,4-1.2,5.6,2.3"/>
	<path id="Fill-53" class="st2" d="M91.7,40.9c-0.3,1.1-1.5,1.7-2.6,1.4c-1.1-0.3-1.7-1.5-1.4-2.6c0.3-1.1,1.5-1.7,2.6-1.4
		C91.4,38.6,92,39.8,91.7,40.9"/>
	<path id="Stroke-55" class="st5" d="M89.7,40.3L88.2,45"/>
	<path id="Fill-59" class="st3" d="M49.8,109.7l-3.8-2.8c0-2.9,0-21.3,0-23c0-1.8-1.5-2.6-2.2-2.9c0.6-0.4,1.4-0.7,2.2-0.7
		c2.1,0,3.8,1.7,3.8,3.8V109.7z"/>
	<path id="Stroke-67_1_" class="st4" d="M141.6,121.5c-9.5-10.4-18.1-15.5-25.6-15.5c-5.3,0-10,1.9-13.9,5.2
		c-1.4,1.2-2.6,2.4-3.6,3.6c-0.4,0.4-0.7,0.8-0.9,1.2c-0.1,0.2-0.2,0.3-0.3,0.4l-1.1,1.8l-1.3-1.6c-0.1-0.1-0.2-0.3-0.4-0.5
		c-0.4-0.4-0.8-0.9-1.3-1.5c-1.4-1.5-3-3-4.7-4.5c-4.4-3.7-8.7-6-12.6-6.3c-0.3,0-0.6,0-0.8,0c-4.1,0-8.3,2.3-12.3,6.2
		c-1.5,1.4-2.8,2.9-4,4.4c-0.4,0.5-0.8,1-1.1,1.5c-0.2,0.3-0.3,0.4-0.4,0.5l-1.2,1.8l-1.3-1.7c-0.1-0.1-0.3-0.3-0.5-0.6
		c-0.4-0.5-0.9-1.1-1.5-1.7c-1.6-1.8-3.4-3.6-5.3-5.2c-5.4-4.6-10.8-7.4-15.8-7.4c-7.2,0-14.9,6.3-23,19"/>
	<path id="Line-2" class="st6" d="M9.5,127.5h4"/>
	<path id="Line-2_1_" class="st6" d="M20.5,127.5h7"/>
	<path id="Line-2_2_" class="st6" d="M85.5,127.5h31"/>
	<path id="Line-2_3_" class="st6" d="M123.5,127.5h6"/>
	<path id="Line-2_4_" class="st6" d="M136.5,127.5h2"/>
	<path id="Line-2_5_" class="st6" d="M36.5,127.5h41"/>
	<path id="Rectangle" class="st4" d="M42.5,104.2l7,4.2V84c0-1.9-1.6-3.5-3.5-3.5s-3.5,1.6-3.5,3.5V104.2z"/>
	<path id="Path-6" class="st4" d="M42.5,99.5v-5H41c-1.4,0-2.5-1.1-2.5-2.5v-4c0-1.4-1.1-2.5-2.5-2.5s-2.5,1.1-2.5,2.5v4.5
		c0,3.9,3.1,7,7,7H42.5z"/>
	<path id="Path-6-Copy" class="st4" d="M49.5,107.5v-5H51c1.4,0,2.5-1.1,2.5-2.5v-4c0-1.4,1.1-2.5,2.5-2.5s2.5,1.1,2.5,2.5v4.5
		c0,3.9-3.1,7-7,7H49.5z"/>
	<path id="Oval-7" class="st4" d="M65.1,57.9c-1.2,6,7.7,11.7,16.6,14.1c9.4,2.5,16.4,0.4,17.3-2.7c0.1-0.3,0.1-0.7,0-1.1"/>
	<path id="Oval-8_1_" class="st4" d="M75.4,48.1c-7.3-0.4-12.3,1.2-13.1,3.9c-1.2,4.2,7.3,10.9,19.3,14.4s22.8,2.2,24-2
		c0.8-2.7-2.7-6.8-9.2-10.3"/>
</g>
</svg>
