<?xml version="1.0" encoding="utf-8"?>
<!-- Generator: Adobe Illustrator 21.0.0, SVG Export Plug-In . SVG Version: 6.00 Build 0)  -->
<svg version="1.1" id="图层_1" xmlns="http://www.w3.org/2000/svg" xmlns:xlink="http://www.w3.org/1999/xlink" x="0px" y="0px"
	 viewBox="0 0 150 150" style="enable-background:new 0 0 150 150;" xml:space="preserve">
<style type="text/css">
	.st0{fill:#F6F6F6;}
	.st1{opacity:0.1979;fill:none;stroke:#DDDDDD;stroke-width:2;enable-background:new    ;}
	.st2{fill:#ECECEC;}
	.st3{fill:none;stroke:#DDDDDD;stroke-width:2;}
	.st4{fill:none;stroke:#DDDDDD;stroke-width:3;}
	.st5{fill:#FFFFFF;}
</style>
<title>defaultPic/noAddress@2x</title>
<desc>Created with Sketch.</desc>
<path id="坐标-copy" class="st0" d="M45,71.1C45,49,61.8,31,82.5,31S120,49,120,71.1c0,22.2-34.4,51.9-37.5,51.9
	C79.2,123,45,93.3,45,71.1z"/>
<path id="Stroke-31" class="st1" d="M141.4,61.8c0-2.4-2-4.3-4.4-4.3c-2.5,0-4.4,2-4.4,4.3s2,4.3,4.4,4.3
	C139.4,66.2,141.4,64.2,141.4,61.8z"/>
<path id="Fill-33" class="st2" d="M26,70c0,1.7-1.3,3-3,3s-3-1.3-3-3s1.3-3,3-3S26,68.3,26,70"/>
<polygon id="Fill-45" class="st2" points="50.3,7.9 51.8,10.6 54.6,12.2 51.8,13.7 50.3,16.5 48.7,13.7 45.9,12.2 48.7,10.6 "/>
<polyline id="Stroke-68" class="st3" points="132,39.8 134.5,37 137.4,40 140.3,37 143,40 "/>
<path id="Stroke-72" class="st3" d="M120,12h5.6c0,0-0.5-2.6,3.1-2.6c0,0,0.6-3.4,4.8-3.4c4.1,0,4.5,3.4,4.5,3.4s3.5-0.5,3.6,2.6
	h4.3"/>
<path id="Stroke-74" class="st3" d="M1,42h4.7c0,0-0.4-2.1,2.7-2.2c0,0,0.5-2.8,4.1-2.8c3.4,0,3.8,2.9,3.8,2.9s3-0.5,3.1,2.1H23"/>
<path id="Stroke-86" class="st3" d="M27,13h7"/>
<path id="坐标" class="st4" d="M75.5,121.5c1.3,0,11.2-8.6,18.8-17.1c10.7-12.1,17.2-23.9,17.2-33.3c0-21.3-16.1-38.6-36-38.6
	c-19.9,0-36,17.3-36,38.6c0,9.4,6.5,21.2,17.2,33.3c4.1,4.7,8.6,9.1,12.6,12.5c1.8,1.5,3.3,2.7,4.6,3.6c0.6,0.4,1.1,0.7,1.4,0.9
	C75.4,121.5,75.5,121.5,75.5,121.5z"/>
<path id="path-1" class="st5" d="M75.5,83c-8,0-14.5-6.5-14.5-14.5c0-8,6.5-14.5,14.5-14.5c8,0,14.5,6.5,14.5,14.5
	C90,76.5,83.5,83,75.5,83z"/>
<path class="st4" d="M75.5,81.5c7.2,0,13-5.8,13-13c0-7.2-5.8-13-13-13c-7.2,0-13,5.8-13,13C62.5,75.7,68.3,81.5,75.5,81.5z"/>
<path id="Combined-Shape" class="st4" d="M51.2,109c-9.9,2.3-15.7,5.8-15.7,9c0,5.9,17.9,11.5,40,11.5s40-5.6,40-11.5
	c0-3.3-6.2-6.9-16.7-9.2"/>
</svg>
