<?xml version="1.0" encoding="utf-8"?>
<!-- Generator: Adobe Illustrator 21.0.0, SVG Export Plug-In . SVG Version: 6.00 Build 0)  -->
<svg version="1.1" id="图层_1" xmlns="http://www.w3.org/2000/svg" xmlns:xlink="http://www.w3.org/1999/xlink" x="0px" y="0px"
	 viewBox="0 0 150 150" style="enable-background:new 0 0 150 150;" xml:space="preserve">
<style type="text/css">
	.st0{fill:none;stroke:#DDDDDD;stroke-width:3;stroke-linecap:square;}
	.st1{fill:none;stroke:#DDDDDD;stroke-width:3;}
	.st2{fill:#DDDDDD;}
	.st3{fill:none;stroke:#DDDDDD;stroke-width:2;}
</style>
<title>defaultPic/noCoupons@2x</title>
<desc>Created with Sketch.</desc>
<path id="Line" class="st0" d="M36.1,75.3l4.2-3.1"/>
<path id="Line_1_" class="st0" d="M114.9,75.3l-4.1-3.2"/>
<path id="Rectangle-10_3_" class="st1" d="M93.7,127.5h21.8V77.2l-40,16.4l-40-16.4v50.3H44"/>
<path id="Rectangle-10_1_" class="st1" d="M58.5,127.5h30.4"/>
<path class="st2" d="M61.4,113.3c-0.2-0.2-0.4-0.3-0.6-0.3h-0.9c-0.1,0-0.2,0-0.3,0.1l-0.1,0.1V112H59v4h0.4v-0.1l0.1,0.1
	c0.1,0,0.2,0.1,0.3,0.1h0.9c0.2,0,0.4-0.1,0.6-0.3c0.2-0.2,0.3-0.4,0.3-0.7v-1C61.7,113.7,61.6,113.5,61.4,113.3z M61.2,115
	c0,0.1,0,0.3-0.1,0.4c-0.1,0.1-0.2,0.1-0.3,0.1h-0.9c-0.1,0-0.2,0-0.3-0.1c-0.1-0.1-0.1-0.2-0.1-0.4v-1c0-0.1,0-0.3,0.1-0.4
	c0.1-0.1,0.2-0.1,0.3-0.1h0.9c0.1,0,0.2,0,0.3,0.1c0.1,0.1,0.1,0.2,0.1,0.4V115z"/>
<path class="st2" d="M65.4,114.2c0-0.3-0.1-0.7-0.3-0.9c-0.2-0.2-0.4-0.3-0.6-0.3h-0.9c-0.2,0-0.4,0.1-0.6,0.3
	c-0.2,0.2-0.3,0.6-0.3,0.9v0.8c0,0.3,0.1,0.5,0.3,0.7c0.2,0.2,0.4,0.3,0.6,0.3h1.6v-0.5h-1.6c-0.1,0-0.2,0-0.3-0.1
	c-0.1-0.1-0.1-0.1-0.1-0.2c0,0,0,0,0-0.2c0-0.1,0-0.1,0-0.2l0-0.1h2.2V114.2z M63.2,114.2l0-0.1c0,0,0,0,0-0.1c0-0.1,0-0.1,0-0.1
	c0-0.1,0.1-0.2,0.1-0.2c0.1-0.1,0.2-0.1,0.3-0.1h0.9c0.1,0,0.2,0,0.3,0.1c0.1,0.1,0.1,0.1,0.1,0.2c0,0,0,0,0,0.1c0,0,0,0.1,0,0.1
	l0,0.1L63.2,114.2z"/>
<path class="st2" d="M67.4,113.5c-0.1,0-0.2,0-0.3,0.1c-0.1,0.1-0.1,0.2-0.1,0.4v2h-0.4v-3H67v0.5l0.2-0.4c0-0.1,0.2-0.1,0.3-0.1
	h0.9c0.2,0,0.4,0.1,0.6,0.3c0.2,0.2,0.3,0.4,0.3,0.7v2h-0.4v-2c0-0.1,0-0.3-0.1-0.4c-0.1-0.1-0.2-0.1-0.3-0.1H67.4z"/>
<rect x="70.3" y="112" class="st2" width="0.4" height="4"/>
<rect x="76.1" y="112" class="st2" width="0.4" height="0.5"/>
<rect x="76.1" y="113" class="st2" width="0.4" height="3"/>
<rect x="77.7" y="115.4" class="st2" width="0.6" height="0.6"/>
<path class="st2" d="M79.3,115v-1c0-0.3,0.1-0.5,0.3-0.7v0c0.2-0.2,0.4-0.3,0.6-0.3H82v0.5h-1.8c-0.1,0-0.2,0-0.3,0.1
	c-0.1,0.1-0.1,0.2-0.1,0.4v1c0,0.1,0,0.3,0.1,0.4c0.1,0.1,0.2,0.1,0.3,0.1H82v0.5h-1.8c-0.2,0-0.4-0.1-0.6-0.3
	C79.4,115.5,79.3,115.3,79.3,115z"/>
<path class="st2" d="M85.5,113.3c-0.2-0.2-0.4-0.3-0.6-0.3H84c-0.2,0-0.4,0.1-0.6,0.3c-0.2,0.2-0.3,0.4-0.3,0.7v1
	c0,0.3,0.1,0.5,0.3,0.7c0.2,0.2,0.4,0.3,0.6,0.3h0.9c0.2,0,0.4-0.1,0.6-0.3c0.2-0.2,0.3-0.4,0.3-0.7v-1
	C85.8,113.7,85.7,113.5,85.5,113.3z M85.3,115c0,0.1,0,0.3-0.1,0.4c-0.1,0.1-0.2,0.1-0.3,0.1H84c-0.1,0-0.2,0-0.3-0.1
	c-0.1-0.1-0.1-0.2-0.1-0.4v-1c0-0.1,0-0.3,0.1-0.4c0.1-0.1,0.2-0.1,0.3-0.1h0.9c0.1,0,0.2,0,0.3,0.1c0.1,0.1,0.1,0.2,0.1,0.4V115z"
	/>
<path class="st2" d="M89.6,113.5c-0.1,0-0.2,0-0.3,0.1c-0.1,0.1-0.1,0.2-0.1,0.4v2h-0.4v-2c0-0.1,0-0.3-0.1-0.4
	c-0.1-0.1-0.2-0.1-0.3-0.1h-0.5c-0.1,0-0.2,0-0.3,0.1c-0.1,0.1-0.1,0.2-0.1,0.4v2h-0.4v-3h0.4v0.1l0.1-0.1c0.1,0,0.2-0.1,0.3-0.1
	h0.5c0.2,0,0.4,0.1,0.6,0.3l0.1,0.1l0.1-0.1c0.2-0.2,0.4-0.3,0.6-0.3h0.5c0.2,0,0.4,0.1,0.6,0.3c0.2,0.2,0.3,0.4,0.3,0.7v2h-0.4v-2
	c0-0.1,0-0.3-0.1-0.4c-0.1-0.1-0.2-0.1-0.3-0.1H89.6z"/>
<path class="st2" d="M74.8,115.6c-0.1,0-0.2-0.1-0.2-0.2v-1.3c0-0.3-0.1-0.6-0.3-0.8c-0.2-0.2-0.4-0.3-0.6-0.3h-1.4v0.5h1.4
	c0.1,0,0.2,0,0.3,0.1c0.1,0.1,0.1,0.3,0.1,0.4v0.5l-0.2-0.2c0-0.1-0.2-0.1-0.3-0.1h-0.9c-0.3,0-0.5,0.1-0.6,0.3
	c-0.2,0.2-0.3,0.4-0.3,0.7c0,0.3,0.1,0.4,0.3,0.7c0.2,0.2,0.3,0.3,0.6,0.3h0.9c0.2,0,0.2-0.1,0.3-0.2l0.2,0c0,0,0,0.2,0.1,0.2l0.7,0
	v-0.4L74.8,115.6z M73.8,115.4L73.8,115.4c-0.1,0.1-0.2,0.1-0.3,0.1h-0.7c-0.1,0-0.2,0-0.3-0.1c-0.1-0.1-0.1-0.1-0.1-0.3
	c0-0.1,0-0.2,0.1-0.3c0.1-0.1,0.2-0.1,0.3-0.1h0.7c0.1,0,0.2,0,0.3,0.1c0.1,0.1,0.1,0.2,0.1,0.3C73.9,115.3,73.9,115.3,73.8,115.4z"
	/>
<path id="Combined-Shape_1_" class="st2" d="M62.4,102h1.3v1.6h2.7v1.4h-2.2l2.9,3.2l-0.9,1l-2.5-2.8v1.9h1.2v1.4h-1.2v1.3h-1.3
	v-1.3h-1.2v-1.4h1.2v-1.9l-2.5,2.8l-0.9-1l2.9-3.2h-2.2v-1.4h2.7V102z M71.3,102h1.3v0.9h2.4v1.4h-1.2l0.9,1l-0.9,1h1.7v1.4h-1.8
	l1.8,2l-0.9,1l-2-2.2v2.6h-1.3v-2.6l-2,2.2l-0.9-1l1.8-2h-1.8v-1.4h1.7l-0.9-1l0.9-1h-1.2v-1.4h2.4V102z M85.1,106.5v-1.4h1.3v1.4
	H85.1z M85.1,104.1v-1.4h1.3v1.4H85.1z M90.6,102.7l0.5-0.6l0.9,1l-0.9,1h-1v1h1.6v1.4h-1.6v1h1.6v3.6h-4.5v-3.6h1.6v-1h-1.6v-1.4
	h1.6v-1h-1.6v-1.4H90.6z M85.1,111v-3.6h1.3v3.6H85.1z M79.6,102h1.3v1.8h2.3v1.4h-2.3v1.4h2v1.4h-2v1.6h2.9v1.4h-7v-1.4h2.9V108h-2
	v-1.4h2v-1.4h-2.4v-2.1h1.3v0.7h1.2V102z M72.5,104.3v1.9h1.1l-0.9-1l0.9-1H72.5z M71,105.2l-0.9,1h1.1v-1.9h-1.2L71,105.2z
	 M88.5,109.6h2v-0.8h-2V109.6z"/>
<polyline id="Stroke-68" class="st3" points="132,39.8 134.5,37 137.4,40 140.3,37 143,40 "/>
<path id="Stroke-72" class="st3" d="M120,12h5.6c0,0-0.5-2.6,3.1-2.6c0,0,0.6-3.4,4.8-3.4c4.1,0,4.5,3.4,4.5,3.4s3.5-0.5,3.6,2.6
	h4.3"/>
<path id="Stroke-74" class="st3" d="M1,42h4.7c0,0-0.4-2.1,2.7-2.2c0,0,0.5-2.8,4.1-2.8c3.4,0,3.8,2.9,3.8,2.9s3-0.5,3.1,2.1H23"/>
<path id="Stroke-76" class="st1" d="M92.5,62.5c0-9.4-7.6-17-17-17s-17,7.6-17,17s7.6,17,17,17S92.5,71.9,92.5,62.5z"/>
<polyline id="Stroke-78" class="st1" points="68,54 75.5,60 83,54 "/>
<path id="Stroke-80" class="st1" d="M68,62.5h15"/>
<path id="Stroke-82" class="st1" d="M68,67.5h15"/>
<path id="Stroke-84" class="st1" d="M75.5,60v12"/>
<path id="Stroke-86" class="st3" d="M37,13h7"/>
<path id="Stroke-88" class="st3" d="M49,13h1.8"/>
<path id="Stroke-92" class="st3" d="M134,61h13"/>
<polyline id="Stroke-70" class="st3" points="10,67.8 12,65 14.4,68 16.8,65 19,68 "/>
<path id="Stroke-90" class="st3" d="M145,56h5"/>
<path id="Combined-Shape_3_" class="st1" d="M102.5,82.6V28.5h-3.3c-0.6,1.7-2.3,3-4.2,3s-3.6-1.3-4.2-3h-1.5c-0.6,1.7-2.3,3-4.2,3
	s-3.6-1.3-4.2-3h-1.5c-0.6,1.7-2.3,3-4.2,3s-3.6-1.3-4.2-3h-1.5c-0.6,1.7-2.3,3-4.2,3s-3.6-1.3-4.2-3h-1.5c-0.6,1.7-2.3,3-4.2,3
	s-3.6-1.3-4.2-3h-2.3v54.1"/>
<path id="Combined-Shape_6_" class="st1" d="M107.4,80.5l11.8-44.1l-2.2-0.6c-1,1.5-3,2.3-4.9,1.8c-1.9-0.5-3.2-2.1-3.3-4l-1.5-0.4
	c-1,1.5-3,2.3-4.9,1.8"/>
<path id="Stroke-34" class="st1" d="M35.5,110.7c-3.2,0.6-5.4,2.2-6.8,4.6c-0.6,1.1-1,2.2-1.3,3.4c-0.1,0.4-0.1,0.8-0.2,1.1
	c0,0.2,0,0.3,0,0.4l0,1.2l-1.2,0.2c-2.8,0.4-4.6,1.7-5.5,3.5c-0.4,0.7-0.6,1.5-0.8,2.3h15.8"/>
<path id="Stroke-36" class="st1" d="M13.3,107.2c-0.1,0.1-0.1,0.3-0.3,0.5c-0.1,0.3-0.1,0.3-0.3,0.5c-0.2,0.4-0.4,0.7-0.6,1.1
	c-0.6,1.2-1.1,2.2-1.5,3.1c-1.1,2.6-1.4,4.5-0.8,5.8c0.7,1.4,2.9,2.3,7.1,2.3c5.8,0,7.3-2.1,6.3-6.3c-0.3-1.3-0.8-2.6-1.5-4.1
	c-0.2-0.5-0.5-1.1-0.8-1.6c-0.1-0.2-0.2-0.4-0.4-0.7c-0.1-0.1-0.3-0.5-0.3-0.6C17.6,102.3,15.9,102.3,13.3,107.2z"/>
<path id="Stroke-38" class="st1" d="M16.5,110v18"/>
<path id="Stroke-40" class="st1" d="M20,114c0,0-3,1.8-3,5"/>
<path id="Line-2_1_" class="st0" d="M6.5,127.5h27"/>
<path id="Stroke-34_1_" class="st1" d="M115.5,110.7c3.2,0.6,5.4,2.2,6.8,4.6c0.6,1.1,1,2.2,1.3,3.4c0.1,0.4,0.1,0.8,0.2,1.1
	c0,0.2,0,0.3,0,0.4l0,1.2l1.2,0.2c2.8,0.4,4.6,1.7,5.5,3.5c0.4,0.7,0.6,1.5,0.8,2.3h-15.8"/>
<path id="Stroke-36_1_" class="st1" d="M137.7,107.2c0.1,0.1,0.1,0.3,0.3,0.5c0.1,0.3,0.1,0.3,0.3,0.5c0.2,0.4,0.4,0.7,0.6,1.1
	c0.6,1.2,1.1,2.2,1.5,3.1c1.1,2.6,1.4,4.5,0.8,5.8c-0.7,1.4-2.9,2.3-7.1,2.3c-5.8,0-7.3-2.1-6.3-6.3c0.3-1.3,0.8-2.6,1.5-4.1
	c0.2-0.5,0.5-1.1,0.8-1.6c0.1-0.2,0.2-0.4,0.4-0.7c0.1-0.1,0.3-0.5,0.3-0.6C133.4,102.3,135.1,102.3,137.7,107.2z"/>
<path id="Stroke-38_1_" class="st1" d="M134.5,110v18"/>
<path id="Stroke-40_1_" class="st1" d="M131,114c0,0,3,1.8,3,5"/>
<path id="Line-2_2_" class="st0" d="M144.5,127.5h-27"/>
<path id="Combined-Shape_7_" class="st1" d="M48.5,35.1c-1.9,0.5-3.8-0.3-4.9-1.8l-1.5,0.4c-0.1,1.8-1.4,3.5-3.3,4
	c-1.9,0.5-3.8-0.3-4.9-1.8l-2.2,0.6l11.8,44.1"/>
</svg>
