<?xml version="1.0" encoding="utf-8"?>
<!-- Generator: Adobe Illustrator 21.0.0, SVG Export Plug-In . SVG Version: 6.00 Build 0)  -->
<svg version="1.1" id="图层_1" xmlns="http://www.w3.org/2000/svg" xmlns:xlink="http://www.w3.org/1999/xlink" x="0px" y="0px"
	 viewBox="0 0 90 90" style="enable-background:new 0 0 90 90;" xml:space="preserve">
<style type="text/css">
	.st0{fill:#DDDDDD;}
</style>
<title>Combined Shape@2x</title>
<desc>Created with Sketch.</desc>
<polygon class="st0" points="16.9,31.3 16.9,34.3 11.2,34.3 11.2,37 15.9,37 9.7,43.1 11.6,44.9 16.9,39.7 16.9,43.3 14.4,43.3 
	14.4,45.9 16.9,45.9 16.9,48.3 19.5,48.3 19.5,45.9 22,45.9 22,43.3 19.5,43.3 19.5,39.7 24.8,44.9 26.7,43.1 20.5,37 25.2,37 
	25.2,34.3 19.5,34.3 19.5,31.3 "/>
<path class="st0" d="M35.1,37.5l-1.8-1.8h2.4v3.6h-2.4L35.1,37.5z M38.3,35.6h2.4l-1.8,1.8l1.8,1.8h-2.4V35.6z M35.7,31.3V33h-5.1
	v2.6h2.5l-1.8,1.8l1.8,1.8h-3.5v2.6h3.9l-3.9,3.8l1.9,1.9l4.2-4.1v4.9h2.7v-4.9l4.2,4.1l1.9-1.9l-3.9-3.8h3.9v-2.6h-3.5l1.8-1.8
	l-1.8-1.8h2.5V33h-5.1v-1.7H35.7z"/>
<rect x="65" y="37.1" class="st0" width="2.7" height="2.6"/>
<rect x="65" y="32.6" class="st0" width="2.7" height="2.6"/>
<path class="st0" d="M72.2,45.7h4.2v-1.5h-4.2V45.7z M76.6,32.6l1.1-1.1l1.9,1.9l-1.9,1.8h-2.1v1.9H79v2.6h-3.4v1.8H79v6.8h-9.5
	v-6.8h3.4v-1.8h-3.4v-2.6h3.4v-1.9h-3.4v-2.6H76.6z"/>
<rect x="65" y="41.6" class="st0" width="2.7" height="6.8"/>
<polygon class="st0" points="53.4,31.3 53.4,34.8 50.9,34.8 50.9,33.4 48.2,33.4 48.2,37.4 53.4,37.4 53.4,40 49.1,40 49.1,42.6 
	53.4,42.6 53.4,45.7 47.3,45.7 47.3,48.3 62.1,48.3 62.1,45.7 56,45.7 56,42.6 60.3,42.6 60.3,40 56,40 56,37.4 60.8,37.4 
	60.8,34.8 56,34.8 56,31.3 "/>
<path class="st0" d="M15.2,52.9h-1.9c-0.3,0-0.5,0-0.7,0.1v-2h-1.3v7.6h1.3v-0.1c0.2,0.1,0.5,0.1,0.7,0.1h1.9c0.6,0,1-0.2,1.4-0.6
	c0.4-0.4,0.6-0.9,0.6-1.4v-1.8c0-0.5-0.2-1-0.6-1.4C16.2,53.1,15.7,52.9,15.2,52.9z M15.2,57.4h-1.9c-0.2,0-0.4-0.1-0.5-0.2
	c-0.1-0.1-0.2-0.3-0.2-0.5v-1.8c0-0.2,0.1-0.4,0.2-0.5c0.1-0.1,0.3-0.2,0.5-0.2h1.9c0.2,0,0.4,0.1,0.5,0.2c0.1,0.1,0.2,0.3,0.2,0.5
	v1.8c0,0.2-0.1,0.4-0.2,0.5C15.5,57.3,15.4,57.4,15.2,57.4z"/>
<path class="st0" d="M23.1,52.9h-1.9c-0.6,0-1,0.2-1.4,0.6c-0.4,0.4-0.6,1.2-0.6,1.7v1.5c0,0.5,0.2,1,0.6,1.4
	c0.4,0.4,0.9,0.6,1.4,0.6h3.5v-1.3h-3.5c-0.2,0-0.3-0.1-0.5-0.2c-0.1-0.1-0.2-0.2-0.2-0.3c0,0,0-0.6,0-0.6h4.6v-1.1
	c0-0.5-0.2-1.3-0.6-1.7C24.2,53.1,23.7,52.9,23.1,52.9 M20.7,54.3c0.1-0.1,0.3-0.2,0.5-0.2h1.9c0.2,0,0.3,0.1,0.5,0.2
	c0.1,0.1,0.2,0.2,0.2,0.3c0,0,0,0.3,0,0.3l-3.3,0c0,0,0-0.3,0-0.4C20.6,54.5,20.6,54.4,20.7,54.3"/>
<path class="st0" d="M31.1,52.9h-1.9c-0.3,0-0.6,0.1-0.7,0.3v-0.3h-1.3v5.8h1.3v-3.8c0-0.2,0.1-0.4,0.2-0.5c0.1-0.1,0.3-0.2,0.5-0.2
	h1.9c0.2,0,0.4,0.1,0.5,0.2c0.1,0.1,0.2,0.3,0.2,0.5v3.8h1.3v-3.8c0-0.5-0.2-1-0.6-1.4C32.1,53.1,31.6,52.9,31.1,52.9"/>
<rect x="35.1" y="51" class="st0" width="1.3" height="7.6"/>
<rect x="47.2" y="51" class="st0" width="1.3" height="1.3"/>
<rect x="47.2" y="52.9" class="st0" width="1.3" height="5.8"/>
<rect x="50.5" y="57.1" class="st0" width="1.5" height="1.5"/>
<path class="st0" d="M54.6,53.5c-0.4,0.4-0.6,0.9-0.6,1.4v1.8c0,0.5,0.2,1,0.6,1.4c0.4,0.4,0.9,0.6,1.4,0.6H60v-1.3h-3.9
	c-0.2,0-0.4-0.1-0.5-0.2c-0.1-0.1-0.2-0.3-0.2-0.5v-1.8c0-0.2,0.1-0.4,0.2-0.5c0.1-0.1,0.3-0.2,0.5-0.2H60v-1.3h-3.9
	C55.5,52.9,55,53.1,54.6,53.5"/>
<path class="st0" d="M65.9,52.9H64c-0.6,0-1,0.2-1.4,0.6c-0.4,0.4-0.6,0.9-0.6,1.4v1.8c0,0.5,0.2,1,0.6,1.4c0.4,0.4,0.9,0.6,1.4,0.6
	h1.9c0.6,0,1-0.2,1.4-0.6c0.4-0.4,0.6-0.9,0.6-1.4v-1.8c0-0.5-0.2-1-0.6-1.4C67,53.1,66.5,52.9,65.9,52.9 M65.9,57.4H64
	c-0.2,0-0.4-0.1-0.5-0.2c-0.1-0.1-0.2-0.3-0.2-0.5v-1.8c0-0.2,0.1-0.4,0.2-0.5c0.1-0.1,0.3-0.2,0.5-0.2h1.9c0.2,0,0.4,0.1,0.5,0.2
	c0.1,0.1,0.2,0.3,0.2,0.5v1.8c0,0.2-0.1,0.4-0.2,0.5C66.3,57.3,66.1,57.4,65.9,57.4"/>
<path class="st0" d="M78.4,53.4c-0.4-0.4-0.9-0.6-1.4-0.6h-1.1c-0.5,0-1,0.2-1.4,0.5c-0.4-0.4-0.8-0.5-1.4-0.5H72
	c-0.3,0-0.5,0-0.7,0.1v-0.1H70v5.8h1.3v-3.8c0-0.2,0.1-0.4,0.2-0.5c0.1-0.1,0.3-0.2,0.5-0.2h1.1c0.2,0,0.4,0.1,0.5,0.2
	c0.1,0.1,0.2,0.3,0.2,0.5v3.8h1.3v-3.8c0-0.2,0.1-0.4,0.2-0.5c0.1-0.1,0.3-0.2,0.5-0.2h1.1c0.2,0,0.4,0.1,0.5,0.2
	c0.1,0.1,0.2,0.3,0.2,0.5v3.8H79v-3.8C79,54.3,78.8,53.8,78.4,53.4"/>
<path class="st0" d="M44.4,57.3v-1.8V55c0-0.5-0.2-1.2-0.6-1.6c-0.4-0.4-0.9-0.6-1.4-0.6h-0.4h-2.7v1.3h2.7h0.4
	c0.2,0,0.4,0.1,0.5,0.2c0.1,0.1,0.2,0.5,0.2,0.7v0.3C43,55.2,42.6,55,42.3,55h-1.9c-0.6,0-1,0.1-1.4,0.5c-0.4,0.4-0.6,0.8-0.6,1.3
	c0,0.5,0.2,0.9,0.6,1.3c0.4,0.4,0.9,0.5,1.4,0.5h1.9c0.3,0,0.7-0.1,0.7-0.5c0,0,0,0.5,0.5,0.5h0.8l0.9,0v-1.1c0,0-0.5,0-0.6,0
	C44.5,57.6,44.4,57.5,44.4,57.3 M42.4,57.3c-0.1,0.1-0.3,0.2-0.5,0.2h-1.5c-0.2,0-0.4,0-0.5-0.2c-0.1-0.1-0.2-0.2-0.2-0.4
	c0-0.2,0.1-0.3,0.2-0.4c0.1-0.1,0.3-0.2,0.5-0.2h1.5c0.2,0,0.4,0,0.5,0.2c0.1,0.1,0.2,0.2,0.2,0.4C42.6,57,42.6,57.1,42.4,57.3"/>
</svg>
