<?xml version="1.0" encoding="utf-8"?>
<!-- Generator: Adobe Illustrator 21.0.0, SVG Export Plug-In . SVG Version: 6.00 Build 0)  -->
<svg version="1.1" id="图层_1" xmlns="http://www.w3.org/2000/svg" xmlns:xlink="http://www.w3.org/1999/xlink" x="0px" y="0px"
	 viewBox="0 0 44 44" style="enable-background:new 0 0 44 44;" xml:space="preserve">
<style type="text/css">
	.st0{fill:#FFFFFF;}
</style>
<title>toastWarning@2x</title>
<desc>Created with Sketch.</desc>
<g id="Page-1">
	<path id="Combined-Shape" class="st0" d="M44,22.3C44,34.2,34.2,44,21.7,44C9.8,44,0,34.2,0,22.3C0,9.8,9.8,0,21.7,0
		C34.2,0,44,9.8,44,22.3z M22,11.8c-0.9,0-1.6,0.7-1.6,1.6l0.5,12.3c0,0.6,0.5,1,1,1h0.2c0.6,0,1-0.4,1-1l0.5-12.3
		C23.6,12.6,22.9,11.8,22,11.8L22,11.8z M22,32.2c0.9,0,1.7-0.7,1.7-1.7c0-0.9-0.7-1.7-1.7-1.7s-1.7,0.7-1.7,1.7
		C20.3,31.4,21.1,32.2,22,32.2z"/>
</g>
</svg>
